M48
; DRILL file {KiCad 6.0.11+dfsg-1} date Mon 07 Oct 2024 02:28:01 PM EEST
; FORMAT={-:-/ absolute / metric / decimal}
; #@! TF.CreationDate,2024-10-07T14:28:01+03:00
; #@! TF.GenerationSoftware,Kicad,Pcbnew,6.0.11+dfsg-1
; #@! TF.FileFunction,Plated,1,2,PTH
FMAT,2
METRIC
; #@! TA.AperFunction,Plated,PTH,ViaDrill
T1C0.200
; #@! TA.AperFunction,Plated,PTH,ComponentDrill
T2C0.200
; #@! TA.AperFunction,Plated,PTH,ViaDrill
T3C0.400
; #@! TA.AperFunction,Plated,PTH,ComponentDrill
T4C0.800
; #@! TA.AperFunction,Plated,PTH,ComponentDrill
T5C0.920
; #@! TA.AperFunction,Plated,PTH,ComponentDrill
T6C1.000
; #@! TA.AperFunction,Plated,PTH,ComponentDrill
T7C1.300
; #@! TA.AperFunction,Plated,PTH,ComponentDrill
T8C2.300
; #@! TA.AperFunction,Plated,PTH,ComponentDrill
T9C2.700
%
G90
G05
T1
X65.5Y-90.3
X71.0Y-100.7
X72.1Y-70.0
X73.7Y-128.8
X74.7Y-124.8
X74.7Y-125.7
X74.7Y-126.7
X74.7Y-127.8
X74.7Y-128.8
X75.8Y-128.8
X88.5Y-88.5
X88.5Y-90.5
X102.2Y-73.0
X103.3Y-73.0
X104.4Y-73.0
X121.1Y-62.7
X121.1Y-63.7
X121.1Y-64.8
X124.5Y-85.1
X149.2Y-61.5
X149.2Y-62.5
X149.2Y-63.6
T2
X123.0Y-116.25
X123.0Y-117.75
X124.5Y-116.25
X124.5Y-117.75
X126.0Y-116.25
X126.0Y-117.75
T3
X61.8Y-82.7
X61.8Y-90.2
X61.8Y-99.3
X61.8Y-103.7
X61.8Y-122.5
X63.7Y-116.3
X63.7Y-117.4
X63.7Y-118.6
X63.7Y-119.8
X64.26Y-82.69
X65.13Y-94.75
X66.19Y-72.3
X67.58Y-76.75
X67.81Y-106.18
X68.0Y-83.0
X68.0Y-95.0
X69.5Y-99.5
X69.86Y-108.29
X71.5Y-52.0
X71.8Y-80.31
X72.1Y-71.0
X72.6Y-52.0
X73.3Y-92.2
X73.8Y-52.0
X74.72Y-98.45
X75.5Y-89.5
X75.5Y-103.9
X75.6Y-97.1
X76.4Y-87.8
X76.4Y-108.5
X76.5Y-97.1
X86.5Y-89.5
X87.5Y-89.5
X87.97Y-57.36
X87.97Y-60.06
X88.5Y-89.5
X89.0Y-66.3
X89.2Y-83.2
X89.2Y-84.1
X89.2Y-85.1
X89.2Y-86.1
X89.4Y-95.8
X89.4Y-96.8
X89.4Y-97.8
X90.0Y-66.3
X91.0Y-66.3
X92.0Y-66.3
X92.2Y-74.4
X92.2Y-75.3
X92.2Y-76.3
X93.3Y-74.4
X93.3Y-75.3
X93.3Y-76.3
X94.4Y-67.4
X95.0Y-81.75
X95.3Y-108.4
X95.3Y-109.4
X96.3Y-108.4
X96.3Y-109.4
X96.4Y-69.7
X97.3Y-108.4
X97.3Y-109.4
X97.6Y-127.0
X97.6Y-128.1
X97.8Y-74.4
X97.8Y-75.3
X97.8Y-76.3
X98.6Y-127.0
X98.6Y-128.1
X99.6Y-127.0
X99.6Y-128.1
X99.875Y-64.555
X101.2Y-65.66
X112.67Y-101.01
X114.7Y-118.8
X114.7Y-119.9
X114.7Y-121.0
X115.7Y-118.8
X115.7Y-119.9
X115.7Y-121.0
X116.4Y-114.0
X117.4Y-113.0
X117.4Y-114.0
X117.77Y-65.56
X118.1Y-116.0
X118.1Y-123.5
X118.1Y-124.8
X118.1Y-126.1
X118.23Y-67.87
X118.4Y-114.0
X119.08Y-108.02
X119.88Y-70.87
X121.1Y-115.9
X121.1Y-118.7
X124.45Y-111.924
X124.61Y-61.77
X124.61Y-62.64
X124.61Y-63.51
X124.61Y-64.39
X125.024Y-121.82
X127.459Y-112.522
X128.41Y-121.33
X128.9Y-108.6
X133.1Y-76.4
X133.5Y-101.5
X133.5Y-102.8
X133.5Y-104.3
X133.8Y-116.1
X133.8Y-117.4
X134.1Y-76.4
X134.5Y-101.5
X134.5Y-102.8
X134.5Y-104.3
X134.9Y-116.1
X134.9Y-117.4
X134.9Y-118.7
X134.9Y-126.1
X135.0Y-89.3
X135.0Y-90.3
X135.0Y-91.3
X135.1Y-76.4
X135.6Y-52.0
X136.235Y-55.54
X136.7Y-52.0
X137.105Y-55.54
X137.8Y-52.0
X137.975Y-55.54
X138.845Y-55.54
X140.5Y-127.4
X141.5Y-127.4
X142.5Y-127.4
X150.91Y-73.05
X153.48Y-73.05
X157.26Y-73.04
X159.8Y-73.04
X201.5Y-127.4
X202.6Y-127.4
X203.7Y-127.4
X207.5Y-56.8
X207.5Y-58.0
X207.5Y-59.1
T4
X89.5Y-112.5
X93.0Y-112.5
X101.361Y-111.5
X103.0Y-101.0
X103.0Y-104.5
X104.861Y-111.5
X105.0Y-55.0
X105.0Y-58.5
X122.5Y-55.0
X122.5Y-58.5
T5
X97.5Y-118.01
X100.0Y-118.01
X102.0Y-118.01
X104.5Y-118.01
T6
X63.945Y-56.23
X63.945Y-58.77
X66.485Y-56.23
X66.485Y-58.77
X69.025Y-56.23
X69.025Y-58.77
X75.425Y-56.23
X77.965Y-56.23
X80.505Y-56.23
X81.0Y-84.0
X81.132Y-95.0
X81.5Y-113.529
X81.5Y-118.529
X83.045Y-56.23
X85.585Y-56.23
X86.0Y-84.0
X86.132Y-95.0
X91.725Y-56.23
X91.725Y-58.77
X94.265Y-56.23
X94.265Y-58.77
X148.37Y-58.77
X148.37Y-66.23
X148.37Y-68.77
X148.54Y-56.23
X150.91Y-56.23
X150.91Y-58.77
X150.91Y-66.23
X150.91Y-68.77
X153.45Y-56.23
X153.45Y-58.77
X153.45Y-66.23
X153.45Y-68.77
X155.99Y-56.23
X155.99Y-58.77
X155.99Y-66.23
X155.99Y-68.77
X158.53Y-56.23
X158.53Y-58.77
X158.53Y-66.23
X158.53Y-68.77
X161.07Y-56.23
X161.07Y-58.77
X161.07Y-66.23
X161.07Y-68.77
X163.61Y-56.23
X163.61Y-58.77
X163.61Y-66.23
X163.61Y-68.77
X166.15Y-56.23
X166.15Y-58.77
X166.15Y-66.23
X166.15Y-68.77
X168.69Y-56.23
X168.69Y-58.77
X168.69Y-66.23
X168.69Y-68.77
X171.23Y-56.23
X171.23Y-58.77
X171.23Y-66.23
X171.23Y-68.77
X173.77Y-56.23
X173.77Y-58.77
X173.77Y-66.23
X173.77Y-68.77
X176.31Y-56.23
X176.31Y-58.77
X176.31Y-66.23
X176.31Y-68.77
X178.85Y-56.23
X178.85Y-58.77
X178.85Y-66.23
X178.85Y-68.77
X181.39Y-56.23
X181.39Y-58.77
X181.39Y-66.23
X181.39Y-68.77
X183.93Y-56.23
X183.93Y-58.77
X183.93Y-66.23
X183.93Y-68.77
X186.47Y-56.23
X186.47Y-58.77
X186.47Y-66.23
X186.47Y-68.77
X189.01Y-56.23
X189.01Y-58.77
X189.01Y-66.23
X189.01Y-68.77
X191.55Y-56.23
X191.55Y-58.77
X191.55Y-66.23
X191.55Y-68.77
X194.09Y-56.23
X194.09Y-58.77
X194.09Y-66.23
X194.09Y-68.77
X196.63Y-56.23
X196.63Y-58.77
X196.63Y-66.23
X196.63Y-68.77
T7
X80.5Y-102.5
X80.5Y-107.5
X89.0Y-103.0
X94.0Y-103.0
X111.0Y-62.0
X116.0Y-62.0
X128.5Y-62.0
X133.5Y-62.0
T8
X94.43Y-120.72
X107.57Y-120.72
T9
X65.5Y-125.0
X70.5Y-125.0
X79.0Y-125.0
X84.0Y-125.0
X143.5Y-57.5
X143.5Y-67.5
X143.5Y-106.5
X143.5Y-116.5
X201.5Y-57.5
X201.5Y-67.5
X201.5Y-106.5
X201.5Y-116.5
T0
M30
