%TF.GenerationSoftware,KiCad,Pcbnew,6.0.11+dfsg-1*%
%TF.CreationDate,2024-10-07T14:27:48+03:00*%
%TF.ProjectId,rpi-extension,7270692d-6578-4746-956e-73696f6e2e6b,rev?*%
%TF.SameCoordinates,Original*%
%TF.FileFunction,Soldermask,Top*%
%TF.FilePolarity,Negative*%
%FSLAX46Y46*%
G04 Gerber Fmt 4.6, Leading zero omitted, Abs format (unit mm)*
G04 Created by KiCad (PCBNEW 6.0.11+dfsg-1) date 2024-10-07 14:27:48*
%MOMM*%
%LPD*%
G01*
G04 APERTURE LIST*
G04 Aperture macros list*
%AMRoundRect*
0 Rectangle with rounded corners*
0 $1 Rounding radius*
0 $2 $3 $4 $5 $6 $7 $8 $9 X,Y pos of 4 corners*
0 Add a 4 corners polygon primitive as box body*
4,1,4,$2,$3,$4,$5,$6,$7,$8,$9,$2,$3,0*
0 Add four circle primitives for the rounded corners*
1,1,$1+$1,$2,$3*
1,1,$1+$1,$4,$5*
1,1,$1+$1,$6,$7*
1,1,$1+$1,$8,$9*
0 Add four rect primitives between the rounded corners*
20,1,$1+$1,$2,$3,$4,$5,0*
20,1,$1+$1,$4,$5,$6,$7,0*
20,1,$1+$1,$6,$7,$8,$9,0*
20,1,$1+$1,$8,$9,$2,$3,0*%
G04 Aperture macros list end*
%ADD10C,2.000000*%
%ADD11R,1.700000X1.700000*%
%ADD12O,1.700000X1.700000*%
%ADD13RoundRect,0.250000X-0.475000X0.337500X-0.475000X-0.337500X0.475000X-0.337500X0.475000X0.337500X0*%
%ADD14RoundRect,0.250000X0.337500X0.475000X-0.337500X0.475000X-0.337500X-0.475000X0.337500X-0.475000X0*%
%ADD15RoundRect,0.250000X-0.450000X0.350000X-0.450000X-0.350000X0.450000X-0.350000X0.450000X0.350000X0*%
%ADD16R,3.500000X3.500000*%
%ADD17R,0.800000X1.900000*%
%ADD18C,4.500000*%
%ADD19RoundRect,0.250000X0.475000X-0.337500X0.475000X0.337500X-0.475000X0.337500X-0.475000X-0.337500X0*%
%ADD20RoundRect,0.150000X0.825000X0.150000X-0.825000X0.150000X-0.825000X-0.150000X0.825000X-0.150000X0*%
%ADD21RoundRect,0.250000X0.350000X0.450000X-0.350000X0.450000X-0.350000X-0.450000X0.350000X-0.450000X0*%
%ADD22RoundRect,0.250000X-0.337500X-0.475000X0.337500X-0.475000X0.337500X0.475000X-0.337500X0.475000X0*%
%ADD23R,1.900000X0.800000*%
%ADD24R,1.000000X1.000000*%
%ADD25C,2.600000*%
%ADD26RoundRect,0.250000X0.450000X-0.325000X0.450000X0.325000X-0.450000X0.325000X-0.450000X-0.325000X0*%
%ADD27R,2.000000X2.000000*%
%ADD28C,2.000000*%
%ADD29R,1.600000X1.600000*%
%ADD30C,1.600000*%
%ADD31RoundRect,0.150000X-0.587500X-0.150000X0.587500X-0.150000X0.587500X0.150000X-0.587500X0.150000X0*%
%ADD32RoundRect,0.250000X0.450000X-0.350000X0.450000X0.350000X-0.450000X0.350000X-0.450000X-0.350000X0*%
%ADD33RoundRect,0.250000X-0.350000X-0.450000X0.350000X-0.450000X0.350000X0.450000X-0.350000X0.450000X0*%
%ADD34RoundRect,0.150000X0.150000X-0.587500X0.150000X0.587500X-0.150000X0.587500X-0.150000X-0.587500X0*%
%ADD35RoundRect,0.150000X-0.150000X0.875000X-0.150000X-0.875000X0.150000X-0.875000X0.150000X0.875000X0*%
%ADD36R,5.560000X2.600000*%
%ADD37C,17.800000*%
%ADD38R,2.310000X2.460000*%
%ADD39RoundRect,0.100000X0.100000X-0.687500X0.100000X0.687500X-0.100000X0.687500X-0.100000X-0.687500X0*%
%ADD40C,3.000000*%
%ADD41R,3.800000X3.800000*%
%ADD42C,3.800000*%
%ADD43R,2.200000X1.200000*%
%ADD44R,6.400000X5.800000*%
G04 APERTURE END LIST*
D10*
X79000000Y-124900000D02*
X70600000Y-124900000D01*
X81500000Y-113500000D02*
X73000000Y-113500000D01*
X83800000Y-113500000D02*
X81500000Y-113500000D01*
X86500000Y-116200000D02*
X83800000Y-113500000D01*
X86500000Y-122600000D02*
X86500000Y-116200000D01*
X84100000Y-125000000D02*
X86500000Y-122600000D01*
X65490000Y-122260000D02*
X63710000Y-120480000D01*
X63710000Y-120480000D02*
X63710000Y-116280000D01*
X143000000Y-122000000D02*
X202000000Y-122000000D01*
X202000000Y-62000000D02*
X143000000Y-62000000D01*
X138000000Y-117000000D02*
X138000000Y-67000000D01*
X207000000Y-117000000D02*
X207000000Y-67000000D01*
X65490000Y-125040000D02*
X65490000Y-122260000D01*
D11*
%TO.C,J5*%
X69025000Y-56230000D03*
D12*
X69025000Y-58770000D03*
X66485000Y-56230000D03*
X66485000Y-58770000D03*
X63945000Y-56230000D03*
X63945000Y-58770000D03*
%TD*%
D11*
%TO.C,J2*%
X148370000Y-68770000D03*
D12*
X148370000Y-66230000D03*
X150910000Y-68770000D03*
X150910000Y-66230000D03*
X153450000Y-68770000D03*
X153450000Y-66230000D03*
X155990000Y-68770000D03*
X155990000Y-66230000D03*
X158530000Y-68770000D03*
X158530000Y-66230000D03*
X161070000Y-68770000D03*
X161070000Y-66230000D03*
X163610000Y-68770000D03*
X163610000Y-66230000D03*
X166150000Y-68770000D03*
X166150000Y-66230000D03*
X168690000Y-68770000D03*
X168690000Y-66230000D03*
X171230000Y-68770000D03*
X171230000Y-66230000D03*
X173770000Y-68770000D03*
X173770000Y-66230000D03*
X176310000Y-68770000D03*
X176310000Y-66230000D03*
X178850000Y-68770000D03*
X178850000Y-66230000D03*
X181390000Y-68770000D03*
X181390000Y-66230000D03*
X183930000Y-68770000D03*
X183930000Y-66230000D03*
X186470000Y-68770000D03*
X186470000Y-66230000D03*
X189010000Y-68770000D03*
X189010000Y-66230000D03*
X191550000Y-68770000D03*
X191550000Y-66230000D03*
X194090000Y-68770000D03*
X194090000Y-66230000D03*
X196630000Y-68770000D03*
X196630000Y-66230000D03*
%TD*%
D13*
%TO.C,C34*%
X112000000Y-124462500D03*
X112000000Y-126537500D03*
%TD*%
D14*
%TO.C,C11*%
X68037500Y-119375000D03*
X65962500Y-119375000D03*
%TD*%
D13*
%TO.C,C6*%
X113500000Y-53462500D03*
X113500000Y-55537500D03*
%TD*%
D15*
%TO.C,R17*%
X90500000Y-122000000D03*
X90500000Y-124000000D03*
%TD*%
D14*
%TO.C,C23*%
X84037500Y-65500000D03*
X81962500Y-65500000D03*
%TD*%
D16*
%TO.C,L1*%
X106925000Y-90000000D03*
X94075000Y-85500000D03*
X94075000Y-94500000D03*
%TD*%
D15*
%TO.C,R1*%
X113000000Y-70500000D03*
X113000000Y-72500000D03*
%TD*%
D17*
%TO.C,Q4*%
X73450000Y-98500000D03*
X71550000Y-98500000D03*
X72500000Y-101500000D03*
%TD*%
D18*
%TO.C,REF\u002A\u002A*%
X143500000Y-116500000D03*
%TD*%
D14*
%TO.C,C17*%
X122537500Y-109000000D03*
X120462500Y-109000000D03*
%TD*%
D19*
%TO.C,C26*%
X111500000Y-113537500D03*
X111500000Y-111462500D03*
%TD*%
D13*
%TO.C,C21*%
X114000000Y-100962500D03*
X114000000Y-103037500D03*
%TD*%
D14*
%TO.C,C30*%
X74037500Y-108500000D03*
X71962500Y-108500000D03*
%TD*%
D20*
%TO.C,Q9*%
X85475000Y-72905000D03*
X85475000Y-71635000D03*
X85475000Y-70365000D03*
X85475000Y-69095000D03*
X80525000Y-69095000D03*
X80525000Y-70365000D03*
X80525000Y-71635000D03*
X80525000Y-72905000D03*
%TD*%
D18*
%TO.C,REF\u002A\u002A*%
X143500000Y-57500000D03*
%TD*%
%TO.C,REF\u002A\u002A*%
X201500000Y-67500000D03*
%TD*%
D19*
%TO.C,C15*%
X123265000Y-125537500D03*
X123265000Y-123462500D03*
%TD*%
D13*
%TO.C,C3*%
X128500000Y-53462500D03*
X128500000Y-55537500D03*
%TD*%
D18*
%TO.C,REF\u002A\u002A*%
X201500000Y-57500000D03*
%TD*%
D21*
%TO.C,R12*%
X132500000Y-123000000D03*
X130500000Y-123000000D03*
%TD*%
D13*
%TO.C,C7*%
X111000000Y-53462500D03*
X111000000Y-55537500D03*
%TD*%
D15*
%TO.C,R3*%
X115500000Y-70500000D03*
X115500000Y-72500000D03*
%TD*%
D19*
%TO.C,C27*%
X109000000Y-113537500D03*
X109000000Y-111462500D03*
%TD*%
D18*
%TO.C,REF\u002A\u002A*%
X201500000Y-106500000D03*
%TD*%
D22*
%TO.C,C12*%
X105962500Y-80500000D03*
X108037500Y-80500000D03*
%TD*%
D23*
%TO.C,Q1*%
X63500000Y-96050000D03*
X63500000Y-97950000D03*
X66500000Y-97000000D03*
%TD*%
D24*
%TO.C,D6*%
X63250000Y-108500000D03*
X65750000Y-108500000D03*
%TD*%
D25*
%TO.C,FB2*%
X116000000Y-62000000D03*
X111000000Y-62000000D03*
%TD*%
D26*
%TO.C,D8*%
X90500000Y-128375000D03*
X90500000Y-126325000D03*
%TD*%
D27*
%TO.C,C33*%
X81500000Y-113529292D03*
D28*
X81500000Y-118529292D03*
%TD*%
D29*
%TO.C,C29*%
X103000000Y-101000000D03*
D30*
X103000000Y-104500000D03*
%TD*%
D14*
%TO.C,C32*%
X74037500Y-119500000D03*
X71962500Y-119500000D03*
%TD*%
D31*
%TO.C,Q8*%
X69562500Y-76487500D03*
X69562500Y-78387500D03*
X71437500Y-77437500D03*
%TD*%
D24*
%TO.C,D3*%
X71750000Y-89000000D03*
X69250000Y-89000000D03*
%TD*%
%TO.C,D5*%
X69500000Y-103250000D03*
X69500000Y-100750000D03*
%TD*%
D15*
%TO.C,R10*%
X67000000Y-78437500D03*
X67000000Y-80437500D03*
%TD*%
D19*
%TO.C,C13*%
X132500000Y-121037500D03*
X132500000Y-118962500D03*
%TD*%
D24*
%TO.C,D1*%
X64250000Y-85000000D03*
X66750000Y-85000000D03*
%TD*%
D29*
%TO.C,C8*%
X105000000Y-58500000D03*
D30*
X105000000Y-55000000D03*
%TD*%
D22*
%TO.C,C10*%
X105462500Y-65000000D03*
X107537500Y-65000000D03*
%TD*%
D19*
%TO.C,C24*%
X114000000Y-113537500D03*
X114000000Y-111462500D03*
%TD*%
D32*
%TO.C,R13*%
X121000000Y-125500000D03*
X121000000Y-123500000D03*
%TD*%
D27*
%TO.C,C28*%
X81132323Y-95000000D03*
D28*
X86132323Y-95000000D03*
%TD*%
D21*
%TO.C,R2*%
X71500000Y-93500000D03*
X69500000Y-93500000D03*
%TD*%
D33*
%TO.C,R4*%
X71500000Y-96000000D03*
X73500000Y-96000000D03*
%TD*%
D18*
%TO.C,REF\u002A\u002A*%
X143500000Y-67500000D03*
%TD*%
D34*
%TO.C,Q7*%
X63050000Y-78375000D03*
X64950000Y-78375000D03*
X64000000Y-76500000D03*
%TD*%
D21*
%TO.C,R20*%
X132500000Y-125500000D03*
X130500000Y-125500000D03*
%TD*%
D23*
%TO.C,Q2*%
X66500000Y-93450000D03*
X66500000Y-91550000D03*
X63500000Y-92500000D03*
%TD*%
D33*
%TO.C,R19*%
X109500000Y-101000000D03*
X111500000Y-101000000D03*
%TD*%
D24*
%TO.C,D2*%
X69275000Y-91175000D03*
X71775000Y-91175000D03*
%TD*%
D11*
%TO.C,J3*%
X91725000Y-58770000D03*
D12*
X91725000Y-56230000D03*
X94265000Y-58770000D03*
X94265000Y-56230000D03*
%TD*%
D19*
%TO.C,C9*%
X76000000Y-95537500D03*
X76000000Y-93462500D03*
%TD*%
D21*
%TO.C,R9*%
X64500000Y-73937500D03*
X62500000Y-73937500D03*
%TD*%
D32*
%TO.C,R5*%
X69500000Y-87000000D03*
X69500000Y-85000000D03*
%TD*%
%TO.C,R6*%
X72000000Y-87000000D03*
X72000000Y-85000000D03*
%TD*%
%TO.C,R14*%
X125500000Y-125500000D03*
X125500000Y-123500000D03*
%TD*%
D33*
%TO.C,R18*%
X109500000Y-103500000D03*
X111500000Y-103500000D03*
%TD*%
D29*
%TO.C,C4*%
X122500000Y-58500000D03*
D30*
X122500000Y-55000000D03*
%TD*%
D14*
%TO.C,C20*%
X126537500Y-106500000D03*
X124462500Y-106500000D03*
%TD*%
D35*
%TO.C,U1*%
X110445000Y-68350000D03*
X109175000Y-68350000D03*
X107905000Y-68350000D03*
X106635000Y-68350000D03*
X105365000Y-68350000D03*
X104095000Y-68350000D03*
X102825000Y-68350000D03*
X101555000Y-68350000D03*
X101555000Y-77650000D03*
X102825000Y-77650000D03*
X104095000Y-77650000D03*
X105365000Y-77650000D03*
X106635000Y-77650000D03*
X107905000Y-77650000D03*
X109175000Y-77650000D03*
X110445000Y-77650000D03*
%TD*%
D36*
%TO.C,BT1*%
X124500000Y-73095000D03*
X124500000Y-96905000D03*
D37*
X124500000Y-85000000D03*
%TD*%
D32*
%TO.C,R11*%
X66500000Y-69000000D03*
X66500000Y-67000000D03*
%TD*%
D24*
%TO.C,D4*%
X74500000Y-87250000D03*
X74500000Y-84750000D03*
%TD*%
D20*
%TO.C,Q10*%
X93475000Y-72905000D03*
X93475000Y-71635000D03*
X93475000Y-70365000D03*
X93475000Y-69095000D03*
X88525000Y-69095000D03*
X88525000Y-70365000D03*
X88525000Y-71635000D03*
X88525000Y-72905000D03*
%TD*%
D18*
%TO.C,REF\u002A\u002A*%
X201500000Y-116500000D03*
%TD*%
D29*
%TO.C,C36*%
X89500000Y-112500000D03*
D30*
X93000000Y-112500000D03*
%TD*%
D18*
%TO.C,REF\u002A\u002A*%
X143500000Y-106500000D03*
%TD*%
D33*
%TO.C,R8*%
X71500000Y-104000000D03*
X73500000Y-104000000D03*
%TD*%
D25*
%TO.C,FB4*%
X94000000Y-103000000D03*
X89000000Y-103000000D03*
%TD*%
D19*
%TO.C,C22*%
X81500000Y-77037500D03*
X81500000Y-74962500D03*
%TD*%
D29*
%TO.C,C31*%
X104860604Y-111500000D03*
D30*
X101360604Y-111500000D03*
%TD*%
D19*
%TO.C,C16*%
X128000000Y-125537500D03*
X128000000Y-123462500D03*
%TD*%
D25*
%TO.C,FB3*%
X80500000Y-102500000D03*
X80500000Y-107500000D03*
%TD*%
D23*
%TO.C,Q3*%
X66500000Y-88950000D03*
X66500000Y-87050000D03*
X63500000Y-88000000D03*
%TD*%
D25*
%TO.C,FB1*%
X133500000Y-62000000D03*
X128500000Y-62000000D03*
%TD*%
D38*
%TO.C,U2*%
X124500000Y-117000000D03*
D39*
X122225000Y-119862500D03*
X122875000Y-119862500D03*
X123525000Y-119862500D03*
X124175000Y-119862500D03*
X124825000Y-119862500D03*
X125475000Y-119862500D03*
X126125000Y-119862500D03*
X126775000Y-119862500D03*
X126775000Y-114137500D03*
X126125000Y-114137500D03*
X125475000Y-114137500D03*
X124825000Y-114137500D03*
X124175000Y-114137500D03*
X123525000Y-114137500D03*
X122875000Y-114137500D03*
X122225000Y-114137500D03*
%TD*%
D13*
%TO.C,C5*%
X116000000Y-53425000D03*
X116000000Y-55500000D03*
%TD*%
D11*
%TO.C,J4*%
X75425000Y-56230000D03*
D12*
X77965000Y-56230000D03*
X80505000Y-56230000D03*
X83045000Y-56230000D03*
X85585000Y-56230000D03*
%TD*%
D19*
%TO.C,C19*%
X129000000Y-112537500D03*
X129000000Y-110462500D03*
%TD*%
D32*
%TO.C,R15*%
X119500000Y-120000000D03*
X119500000Y-118000000D03*
%TD*%
D33*
%TO.C,R7*%
X64000000Y-105500000D03*
X66000000Y-105500000D03*
%TD*%
D14*
%TO.C,C18*%
X126537500Y-110500000D03*
X124462500Y-110500000D03*
%TD*%
D23*
%TO.C,Q5*%
X66500000Y-102450000D03*
X66500000Y-100550000D03*
X63500000Y-101500000D03*
%TD*%
D13*
%TO.C,C35*%
X109500000Y-124462500D03*
X109500000Y-126537500D03*
%TD*%
%TO.C,C1*%
X133500000Y-53462500D03*
X133500000Y-55537500D03*
%TD*%
D29*
%TO.C,J8*%
X97500000Y-118010000D03*
D30*
X100000000Y-118010000D03*
X102000000Y-118010000D03*
X104500000Y-118010000D03*
D40*
X107570000Y-120720000D03*
X94430000Y-120720000D03*
%TD*%
D27*
%TO.C,C25*%
X81000000Y-84000000D03*
D28*
X86000000Y-84000000D03*
%TD*%
D41*
%TO.C,J6*%
X70500000Y-125000000D03*
D42*
X65500000Y-125000000D03*
%TD*%
D19*
%TO.C,C14*%
X130000000Y-121037500D03*
X130000000Y-118962500D03*
%TD*%
D43*
%TO.C,Q6*%
X63700000Y-111745000D03*
D44*
X70000000Y-114025000D03*
D43*
X63700000Y-116305000D03*
%TD*%
D41*
%TO.C,J7*%
X79000000Y-125000000D03*
D42*
X84000000Y-125000000D03*
%TD*%
D33*
%TO.C,R16*%
X120500000Y-111500000D03*
X122500000Y-111500000D03*
%TD*%
D13*
%TO.C,C2*%
X131000000Y-53462500D03*
X131000000Y-55537500D03*
%TD*%
D11*
%TO.C,J1*%
X148540000Y-56230000D03*
D12*
X148370000Y-58770000D03*
X150910000Y-56230000D03*
X150910000Y-58770000D03*
X153450000Y-56230000D03*
X153450000Y-58770000D03*
X155990000Y-56230000D03*
X155990000Y-58770000D03*
X158530000Y-56230000D03*
X158530000Y-58770000D03*
X161070000Y-56230000D03*
X161070000Y-58770000D03*
X163610000Y-56230000D03*
X163610000Y-58770000D03*
X166150000Y-56230000D03*
X166150000Y-58770000D03*
X168690000Y-56230000D03*
X168690000Y-58770000D03*
X171230000Y-56230000D03*
X171230000Y-58770000D03*
X173770000Y-56230000D03*
X173770000Y-58770000D03*
X176310000Y-56230000D03*
X176310000Y-58770000D03*
X178850000Y-56230000D03*
X178850000Y-58770000D03*
X181390000Y-56230000D03*
X181390000Y-58770000D03*
X183930000Y-56230000D03*
X183930000Y-58770000D03*
X186470000Y-56230000D03*
X186470000Y-58770000D03*
X189010000Y-56230000D03*
X189010000Y-58770000D03*
X191550000Y-56230000D03*
X191550000Y-58770000D03*
X194090000Y-56230000D03*
X194090000Y-58770000D03*
X196630000Y-56230000D03*
X196630000Y-58770000D03*
%TD*%
M02*
