%TF.GenerationSoftware,KiCad,Pcbnew,6.0.11+dfsg-1*%
%TF.CreationDate,2024-10-07T14:27:48+03:00*%
%TF.ProjectId,rpi-extension,7270692d-6578-4746-956e-73696f6e2e6b,rev?*%
%TF.SameCoordinates,Original*%
%TF.FileFunction,Soldermask,Bot*%
%TF.FilePolarity,Negative*%
%FSLAX46Y46*%
G04 Gerber Fmt 4.6, Leading zero omitted, Abs format (unit mm)*
G04 Created by KiCad (PCBNEW 6.0.11+dfsg-1) date 2024-10-07 14:27:48*
%MOMM*%
%LPD*%
G01*
G04 APERTURE LIST*
%ADD10C,2.000000*%
%ADD11R,1.700000X1.700000*%
%ADD12O,1.700000X1.700000*%
%ADD13C,4.500000*%
%ADD14C,2.600000*%
%ADD15R,2.000000X2.000000*%
%ADD16C,2.000000*%
%ADD17R,1.600000X1.600000*%
%ADD18C,1.600000*%
%ADD19C,3.000000*%
%ADD20R,3.800000X3.800000*%
%ADD21C,3.800000*%
G04 APERTURE END LIST*
D10*
X79100000Y-125000000D02*
X70600000Y-125000000D01*
X65600000Y-122290000D02*
X63790000Y-120490000D01*
X65600000Y-125050000D02*
X65600000Y-122280000D01*
X63790000Y-120490000D02*
X63790000Y-116320000D01*
D11*
%TO.C,J5*%
X69025000Y-56230000D03*
D12*
X69025000Y-58770000D03*
X66485000Y-56230000D03*
X66485000Y-58770000D03*
X63945000Y-56230000D03*
X63945000Y-58770000D03*
%TD*%
D11*
%TO.C,J2*%
X148370000Y-68770000D03*
D12*
X148370000Y-66230000D03*
X150910000Y-68770000D03*
X150910000Y-66230000D03*
X153450000Y-68770000D03*
X153450000Y-66230000D03*
X155990000Y-68770000D03*
X155990000Y-66230000D03*
X158530000Y-68770000D03*
X158530000Y-66230000D03*
X161070000Y-68770000D03*
X161070000Y-66230000D03*
X163610000Y-68770000D03*
X163610000Y-66230000D03*
X166150000Y-68770000D03*
X166150000Y-66230000D03*
X168690000Y-68770000D03*
X168690000Y-66230000D03*
X171230000Y-68770000D03*
X171230000Y-66230000D03*
X173770000Y-68770000D03*
X173770000Y-66230000D03*
X176310000Y-68770000D03*
X176310000Y-66230000D03*
X178850000Y-68770000D03*
X178850000Y-66230000D03*
X181390000Y-68770000D03*
X181390000Y-66230000D03*
X183930000Y-68770000D03*
X183930000Y-66230000D03*
X186470000Y-68770000D03*
X186470000Y-66230000D03*
X189010000Y-68770000D03*
X189010000Y-66230000D03*
X191550000Y-68770000D03*
X191550000Y-66230000D03*
X194090000Y-68770000D03*
X194090000Y-66230000D03*
X196630000Y-68770000D03*
X196630000Y-66230000D03*
%TD*%
D13*
%TO.C,REF\u002A\u002A*%
X143500000Y-116500000D03*
%TD*%
%TO.C,REF\u002A\u002A*%
X143500000Y-57500000D03*
%TD*%
%TO.C,REF\u002A\u002A*%
X201500000Y-67500000D03*
%TD*%
%TO.C,REF\u002A\u002A*%
X201500000Y-57500000D03*
%TD*%
%TO.C,REF\u002A\u002A*%
X201500000Y-106500000D03*
%TD*%
D14*
%TO.C,FB2*%
X116000000Y-62000000D03*
X111000000Y-62000000D03*
%TD*%
D15*
%TO.C,C33*%
X81500000Y-113529292D03*
D16*
X81500000Y-118529292D03*
%TD*%
D17*
%TO.C,C29*%
X103000000Y-101000000D03*
D18*
X103000000Y-104500000D03*
%TD*%
D17*
%TO.C,C8*%
X105000000Y-58500000D03*
D18*
X105000000Y-55000000D03*
%TD*%
D15*
%TO.C,C28*%
X81132323Y-95000000D03*
D16*
X86132323Y-95000000D03*
%TD*%
D13*
%TO.C,REF\u002A\u002A*%
X143500000Y-67500000D03*
%TD*%
D11*
%TO.C,J3*%
X91725000Y-58770000D03*
D12*
X91725000Y-56230000D03*
X94265000Y-58770000D03*
X94265000Y-56230000D03*
%TD*%
D17*
%TO.C,C4*%
X122500000Y-58500000D03*
D18*
X122500000Y-55000000D03*
%TD*%
D13*
%TO.C,REF\u002A\u002A*%
X201500000Y-116500000D03*
%TD*%
D17*
%TO.C,C36*%
X89500000Y-112500000D03*
D18*
X93000000Y-112500000D03*
%TD*%
D13*
%TO.C,REF\u002A\u002A*%
X143500000Y-106500000D03*
%TD*%
D14*
%TO.C,FB4*%
X94000000Y-103000000D03*
X89000000Y-103000000D03*
%TD*%
D17*
%TO.C,C31*%
X104860604Y-111500000D03*
D18*
X101360604Y-111500000D03*
%TD*%
D14*
%TO.C,FB3*%
X80500000Y-102500000D03*
X80500000Y-107500000D03*
%TD*%
%TO.C,FB1*%
X133500000Y-62000000D03*
X128500000Y-62000000D03*
%TD*%
D11*
%TO.C,J4*%
X75425000Y-56230000D03*
D12*
X77965000Y-56230000D03*
X80505000Y-56230000D03*
X83045000Y-56230000D03*
X85585000Y-56230000D03*
%TD*%
D17*
%TO.C,J8*%
X97500000Y-118010000D03*
D18*
X100000000Y-118010000D03*
X102000000Y-118010000D03*
X104500000Y-118010000D03*
D19*
X107570000Y-120720000D03*
X94430000Y-120720000D03*
%TD*%
D15*
%TO.C,C25*%
X81000000Y-84000000D03*
D16*
X86000000Y-84000000D03*
%TD*%
D20*
%TO.C,J6*%
X70500000Y-125000000D03*
D21*
X65500000Y-125000000D03*
%TD*%
D20*
%TO.C,J7*%
X79000000Y-125000000D03*
D21*
X84000000Y-125000000D03*
%TD*%
D11*
%TO.C,J1*%
X148540000Y-56230000D03*
D12*
X148370000Y-58770000D03*
X150910000Y-56230000D03*
X150910000Y-58770000D03*
X153450000Y-56230000D03*
X153450000Y-58770000D03*
X155990000Y-56230000D03*
X155990000Y-58770000D03*
X158530000Y-56230000D03*
X158530000Y-58770000D03*
X161070000Y-56230000D03*
X161070000Y-58770000D03*
X163610000Y-56230000D03*
X163610000Y-58770000D03*
X166150000Y-56230000D03*
X166150000Y-58770000D03*
X168690000Y-56230000D03*
X168690000Y-58770000D03*
X171230000Y-56230000D03*
X171230000Y-58770000D03*
X173770000Y-56230000D03*
X173770000Y-58770000D03*
X176310000Y-56230000D03*
X176310000Y-58770000D03*
X178850000Y-56230000D03*
X178850000Y-58770000D03*
X181390000Y-56230000D03*
X181390000Y-58770000D03*
X183930000Y-56230000D03*
X183930000Y-58770000D03*
X186470000Y-56230000D03*
X186470000Y-58770000D03*
X189010000Y-56230000D03*
X189010000Y-58770000D03*
X191550000Y-56230000D03*
X191550000Y-58770000D03*
X194090000Y-56230000D03*
X194090000Y-58770000D03*
X196630000Y-56230000D03*
X196630000Y-58770000D03*
%TD*%
M02*
